<svg width="20" height="20" xmlns="http://www.w3.org/2000/svg">
 <style type="text/css">.st0{fill:#96989C;}</style>

 <g>
  <title>background</title>
  <rect fill="none" id="canvas_background" height="402" width="582" y="-1" x="-1"/>
 </g>
 <g>
  <title>Layer 1</title>
  <g id="svg_1">
   <circle stroke="#59adf7" fill="#503edd" id="svg_2" r="2" cy="10" cx="10" class="st0"/>
   <path stroke="#59adf7" fill="#3de03d" id="svg_3" d="m4.7,15.3c-1.4,-1.5 -2.2,-3.3 -2.2,-5.3c0,-2 0.8,-3.9 2.2,-5.3c0,0 0,0 0,0c0.2,-0.2 0.2,-0.5 0,-0.7c-0.2,-0.2 -0.5,-0.2 -0.7,0l0,0l0,0c-1.6,1.6 -2.5,3.7 -2.5,6c0,2.3 0.9,4.4 2.5,6l0,0c0.2,0.2 0.5,0.2 0.7,0c0.2,-0.2 0.2,-0.5 0,-0.7c0,0 0,0 0,0z" class="st0"/>
   <path stroke="#59adf7" fill="#3de03d" id="svg_4" d="m15.5,10c0,-1.5 -0.6,-2.9 -1.6,-3.9l0,0c-0.2,-0.2 -0.5,-0.2 -0.7,0c-0.2,0.2 -0.2,0.5 0,0.7c0,0 0,0 0,0c0.8,0.8 1.3,2 1.3,3.2c0,1.2 -0.5,2.3 -1.3,3.2c0,0 0,0 0,0c-0.2,0.2 -0.2,0.5 0,0.7s0.5,0.2 0.7,0c0,0 0,0 0,0l0,0c1,-1.1 1.6,-2.5 1.6,-3.9z" class="st0"/>
   <path stroke="#59adf7" fill="#A98E49" id="svg_5" d="m6.8,13.1c-0.9,-0.9 -1.3,-2 -1.3,-3.2c0,-1.2 0.5,-2.3 1.3,-3.2c0,0 0,0 0,0c0.2,-0.1 0.2,-0.4 0,-0.6s-0.5,-0.2 -0.7,0l0,0l0,0c-1,1 -1.6,2.4 -1.6,3.9c0,1.5 0.6,2.9 1.6,3.9l0,0c0.2,0.2 0.5,0.2 0.7,0c0.2,-0.2 0.2,-0.6 0,-0.8l0,0z" class="st0"/>
   <path stroke="#59adf7" fill="#3de03d" id="svg_6" d="m18.5,10c0,-2.3 -0.9,-4.4 -2.5,-6l0,0c-0.2,-0.2 -0.5,-0.2 -0.7,0c-0.2,0.2 -0.2,0.5 0,0.7c0,0 0,0 0,0c1.4,1.4 2.2,3.3 2.2,5.3c0,2 -0.8,3.9 -2.2,5.3c0,0 0,0 0,0c-0.2,0.2 -0.2,0.5 0,0.7s0.5,0.2 0.7,0l0,0l0,0c1.6,-1.6 2.5,-3.8 2.5,-6z" class="st0"/>
   <polyline stroke="#59adf7" stroke-linecap="round" id="svg_8" points="2.5291800498962402,7.477384090423584 2.5291800498962402,7.477384090423584 " stroke-width="null" fill="none"/>
  </g>
 </g>
</svg>